<mxfile host="app.diagrams.net" modified="2024-03-19T12:35:00.049Z" agent="Mozilla/5.0 (Windows NT 10.0; Win64; x64) AppleWebKit/537.36 (KHTML, like Gecko) Chrome/122.0.0.0 Safari/537.36 Edg/122.0.0.0" etag="BVKXO-n-XpfR6b7JOcpq" version="24.0.7" type="github">
  <diagram name="第 1 页" id="6x4LvMagdbzSouyHg_lp">
    <mxGraphModel dx="1773" dy="613" grid="1" gridSize="10" guides="1" tooltips="1" connect="1" arrows="1" fold="1" page="1" pageScale="1" pageWidth="827" pageHeight="1169" math="0" shadow="0">
      <root>
        <mxCell id="0" />
        <mxCell id="1" parent="0" />
        <mxCell id="KTRBiwCCIsHWIs7wHr18-30" value="DevOps云" style="shape=folder;fontStyle=1;tabWidth=110;tabHeight=30;tabPosition=left;html=1;boundedLbl=1;labelInHeader=1;container=1;collapsible=0;whiteSpace=wrap;" vertex="1" parent="1">
          <mxGeometry x="-80" y="330" width="460" height="450" as="geometry" />
        </mxCell>
        <mxCell id="KTRBiwCCIsHWIs7wHr18-31" value="" style="html=1;strokeColor=none;resizeWidth=1;resizeHeight=1;fillColor=none;part=1;connectable=0;allowArrows=0;deletable=0;whiteSpace=wrap;" vertex="1" parent="KTRBiwCCIsHWIs7wHr18-30">
          <mxGeometry width="459.99999999999994" height="315" relative="1" as="geometry">
            <mxPoint y="30" as="offset" />
          </mxGeometry>
        </mxCell>
        <mxCell id="KTRBiwCCIsHWIs7wHr18-38" value="智能机器人维护&lt;div&gt;（增删改查）&lt;/div&gt;" style="ellipse;whiteSpace=wrap;html=1;" vertex="1" parent="KTRBiwCCIsHWIs7wHr18-30">
          <mxGeometry x="20" y="264.62" width="123.66" height="75.77" as="geometry" />
        </mxCell>
        <mxCell id="KTRBiwCCIsHWIs7wHr18-16" value="FAQ维护&lt;div&gt;（增删改查）&lt;/div&gt;" style="ellipse;whiteSpace=wrap;html=1;" vertex="1" parent="KTRBiwCCIsHWIs7wHr18-30">
          <mxGeometry x="126.89655172413792" y="69.23076923076923" width="191.9310344827586" height="121.15384615384616" as="geometry" />
        </mxCell>
        <mxCell id="KTRBiwCCIsHWIs7wHr18-42" value="&amp;lt;&amp;lt;include&amp;gt;&amp;gt;" style="html=1;verticalAlign=bottom;labelBackgroundColor=none;endArrow=open;endFill=0;dashed=1;rounded=0;entryX=0.38;entryY=1.043;entryDx=0;entryDy=0;entryPerimeter=0;exitX=0.5;exitY=0;exitDx=0;exitDy=0;" edge="1" parent="KTRBiwCCIsHWIs7wHr18-30" source="KTRBiwCCIsHWIs7wHr18-38" target="KTRBiwCCIsHWIs7wHr18-16">
          <mxGeometry width="160" relative="1" as="geometry">
            <mxPoint y="259.61538461538464" as="sourcePoint" />
            <mxPoint x="253.79310344827584" y="259.61538461538464" as="targetPoint" />
          </mxGeometry>
        </mxCell>
        <mxCell id="KTRBiwCCIsHWIs7wHr18-43" value="绑定知识库" style="edgeLabel;html=1;align=center;verticalAlign=middle;resizable=0;points=[];" vertex="1" connectable="0" parent="KTRBiwCCIsHWIs7wHr18-42">
          <mxGeometry x="0.0923" y="-3" relative="1" as="geometry">
            <mxPoint x="-8" y="9" as="offset" />
          </mxGeometry>
        </mxCell>
        <mxCell id="KTRBiwCCIsHWIs7wHr18-18" value="富媒体文档维护&lt;div&gt;（增删改查）&lt;/div&gt;" style="ellipse;whiteSpace=wrap;html=1;" vertex="1" parent="KTRBiwCCIsHWIs7wHr18-30">
          <mxGeometry x="165.28186046511624" y="265.3885714285714" width="129.44186046511626" height="75" as="geometry" />
        </mxCell>
        <mxCell id="KTRBiwCCIsHWIs7wHr18-44" value="导入/导出&lt;div&gt;文档（仅文本型内容）&lt;div&gt;/关联网站&lt;/div&gt;&lt;/div&gt;" style="ellipse;whiteSpace=wrap;html=1;" vertex="1" parent="KTRBiwCCIsHWIs7wHr18-30">
          <mxGeometry x="318.8318604651162" y="264.6185714285715" width="129.44186046511626" height="75" as="geometry" />
        </mxCell>
        <mxCell id="KTRBiwCCIsHWIs7wHr18-45" value="Extends" style="endArrow=block;endSize=16;endFill=0;html=1;rounded=0;entryX=0.693;entryY=1.005;entryDx=0;entryDy=0;exitX=0.5;exitY=0;exitDx=0;exitDy=0;entryPerimeter=0;" edge="1" parent="KTRBiwCCIsHWIs7wHr18-30" target="KTRBiwCCIsHWIs7wHr18-16">
          <mxGeometry width="160" relative="1" as="geometry">
            <mxPoint x="377.14" y="265" as="sourcePoint" />
            <mxPoint x="370.14" y="190" as="targetPoint" />
          </mxGeometry>
        </mxCell>
        <mxCell id="KTRBiwCCIsHWIs7wHr18-46" value="&amp;lt;&amp;lt;include&amp;gt;&amp;gt;" style="html=1;verticalAlign=bottom;labelBackgroundColor=none;endArrow=open;endFill=0;dashed=1;rounded=0;exitX=0.449;exitY=1.005;exitDx=0;exitDy=0;entryX=0.5;entryY=0;entryDx=0;entryDy=0;exitPerimeter=0;" edge="1" parent="KTRBiwCCIsHWIs7wHr18-30" source="KTRBiwCCIsHWIs7wHr18-16" target="KTRBiwCCIsHWIs7wHr18-18">
          <mxGeometry width="160" relative="1" as="geometry">
            <mxPoint x="260.94" y="179.79999999999995" as="sourcePoint" />
            <mxPoint x="100.00094550535594" y="340.39" as="targetPoint" />
          </mxGeometry>
        </mxCell>
        <mxCell id="KTRBiwCCIsHWIs7wHr18-1" value="Operator" style="shape=umlActor;verticalLabelPosition=bottom;verticalAlign=top;html=1;outlineConnect=0;" vertex="1" parent="1">
          <mxGeometry x="130" y="200" width="30" height="60" as="geometry" />
        </mxCell>
        <mxCell id="KTRBiwCCIsHWIs7wHr18-20" value="" style="endArrow=classic;html=1;rounded=0;entryX=0.5;entryY=0;entryDx=0;entryDy=0;" edge="1" parent="1" target="KTRBiwCCIsHWIs7wHr18-16">
          <mxGeometry width="50" height="50" relative="1" as="geometry">
            <mxPoint x="141" y="300" as="sourcePoint" />
            <mxPoint x="160" y="350" as="targetPoint" />
          </mxGeometry>
        </mxCell>
        <mxCell id="KTRBiwCCIsHWIs7wHr18-21" value="User" style="shape=umlActor;verticalLabelPosition=bottom;verticalAlign=top;html=1;outlineConnect=0;" vertex="1" parent="1">
          <mxGeometry x="548" y="200" width="30" height="60" as="geometry" />
        </mxCell>
        <mxCell id="KTRBiwCCIsHWIs7wHr18-22" value="查看FAQ信息" style="ellipse;whiteSpace=wrap;html=1;" vertex="1" parent="1">
          <mxGeometry x="502" y="360" width="121" height="70" as="geometry" />
        </mxCell>
        <mxCell id="KTRBiwCCIsHWIs7wHr18-23" value="搜索FAQ" style="ellipse;whiteSpace=wrap;html=1;" vertex="1" parent="1">
          <mxGeometry x="502" y="490" width="121" height="70" as="geometry" />
        </mxCell>
        <mxCell id="KTRBiwCCIsHWIs7wHr18-24" value="Extends" style="endArrow=block;endSize=16;endFill=0;html=1;rounded=0;entryX=0.5;entryY=1;entryDx=0;entryDy=0;exitX=0.5;exitY=0;exitDx=0;exitDy=0;" edge="1" source="KTRBiwCCIsHWIs7wHr18-23" target="KTRBiwCCIsHWIs7wHr18-22" parent="1">
          <mxGeometry width="160" relative="1" as="geometry">
            <mxPoint x="642" y="460" as="sourcePoint" />
            <mxPoint x="802" y="460" as="targetPoint" />
          </mxGeometry>
        </mxCell>
        <mxCell id="KTRBiwCCIsHWIs7wHr18-25" value="" style="endArrow=classic;html=1;rounded=0;entryX=0.5;entryY=0;entryDx=0;entryDy=0;" edge="1" target="KTRBiwCCIsHWIs7wHr18-22" parent="1">
          <mxGeometry width="50" height="50" relative="1" as="geometry">
            <mxPoint x="562" y="300" as="sourcePoint" />
            <mxPoint x="562" y="350" as="targetPoint" />
          </mxGeometry>
        </mxCell>
        <mxCell id="KTRBiwCCIsHWIs7wHr18-28" value="查看FAQ信息" style="ellipse;whiteSpace=wrap;html=1;" vertex="1" parent="1">
          <mxGeometry x="692" y="360" width="121" height="70" as="geometry" />
        </mxCell>
        <mxCell id="KTRBiwCCIsHWIs7wHr18-36" value="" style="endArrow=open;endFill=1;endSize=12;html=1;rounded=0;" edge="1" parent="1">
          <mxGeometry width="160" relative="1" as="geometry">
            <mxPoint x="420" y="470" as="sourcePoint" />
            <mxPoint x="510" y="470" as="targetPoint" />
          </mxGeometry>
        </mxCell>
      </root>
    </mxGraphModel>
  </diagram>
</mxfile>
